<mxfile host="app.diagrams.net" modified="2023-12-02T15:07:07.274Z" agent="Mozilla/5.0 (Windows NT 10.0; Win64; x64) AppleWebKit/537.36 (KHTML, like Gecko) Chrome/119.0.0.0 Safari/537.36" etag="zvDm0zqClmjMzWYFW6_p" version="21.1.9" type="device">
  <diagram name="Page-1" id="W_xYY2mBdeJjj8uaBrzF">
    <mxGraphModel dx="1635" dy="1414" grid="1" gridSize="10" guides="1" tooltips="1" connect="1" arrows="1" fold="1" page="0" pageScale="1" pageWidth="827" pageHeight="1169" math="0" shadow="0">
      <root>
        <mxCell id="0" />
        <mxCell id="1" parent="0" />
        <mxCell id="AAFjQnPi5kUjQPwpxVuT-1" value="" style="verticalLabelPosition=bottom;verticalAlign=top;html=1;shape=mxgraph.flowchart.on-page_reference;fillColor=none;" parent="1" vertex="1">
          <mxGeometry x="-320" y="70" width="60" height="60" as="geometry" />
        </mxCell>
        <mxCell id="d6f9d9BtoIqbWKQXRGAZ-1" value="" style="rounded=0;whiteSpace=wrap;html=1;rotation=-90;fillColor=#000000;" vertex="1" parent="1">
          <mxGeometry x="-200" y="92.5" width="60" height="15" as="geometry" />
        </mxCell>
        <mxCell id="d6f9d9BtoIqbWKQXRGAZ-3" value="" style="endArrow=classic;html=1;rounded=0;exitX=1;exitY=0.5;exitDx=0;exitDy=0;exitPerimeter=0;entryX=0.5;entryY=0;entryDx=0;entryDy=0;" edge="1" parent="1" source="AAFjQnPi5kUjQPwpxVuT-1" target="d6f9d9BtoIqbWKQXRGAZ-1">
          <mxGeometry width="50" height="50" relative="1" as="geometry">
            <mxPoint x="-240" y="230" as="sourcePoint" />
            <mxPoint x="-190" y="180" as="targetPoint" />
          </mxGeometry>
        </mxCell>
        <mxCell id="d6f9d9BtoIqbWKQXRGAZ-4" value="" style="verticalLabelPosition=bottom;verticalAlign=top;html=1;shape=mxgraph.flowchart.on-page_reference;fillColor=none;" vertex="1" parent="1">
          <mxGeometry x="-80" y="70" width="60" height="60" as="geometry" />
        </mxCell>
        <mxCell id="d6f9d9BtoIqbWKQXRGAZ-5" value="" style="endArrow=classic;html=1;rounded=0;exitX=0.5;exitY=1;exitDx=0;exitDy=0;entryX=0;entryY=0.5;entryDx=0;entryDy=0;entryPerimeter=0;" edge="1" parent="1" source="d6f9d9BtoIqbWKQXRGAZ-1" target="d6f9d9BtoIqbWKQXRGAZ-4">
          <mxGeometry width="50" height="50" relative="1" as="geometry">
            <mxPoint x="-170" y="210" as="sourcePoint" />
            <mxPoint x="-120" y="160" as="targetPoint" />
          </mxGeometry>
        </mxCell>
        <mxCell id="d6f9d9BtoIqbWKQXRGAZ-7" value="" style="verticalLabelPosition=bottom;verticalAlign=top;html=1;shape=mxgraph.flowchart.on-page_reference;fillColor=none;" vertex="1" parent="1">
          <mxGeometry x="-200" y="210" width="60" height="60" as="geometry" />
        </mxCell>
        <mxCell id="d6f9d9BtoIqbWKQXRGAZ-8" value="" style="endArrow=classic;html=1;rounded=0;entryX=0.25;entryY=0;entryDx=0;entryDy=0;exitX=0.145;exitY=0.145;exitDx=0;exitDy=0;exitPerimeter=0;edgeStyle=elbowEdgeStyle;" edge="1" parent="1" source="d6f9d9BtoIqbWKQXRGAZ-7" target="d6f9d9BtoIqbWKQXRGAZ-1">
          <mxGeometry width="50" height="50" relative="1" as="geometry">
            <mxPoint x="-270" y="230" as="sourcePoint" />
            <mxPoint x="-220" y="180" as="targetPoint" />
            <Array as="points">
              <mxPoint x="-210" y="170" />
            </Array>
          </mxGeometry>
        </mxCell>
        <mxCell id="d6f9d9BtoIqbWKQXRGAZ-9" value="" style="endArrow=classic;html=1;rounded=0;exitX=0.25;exitY=1;exitDx=0;exitDy=0;entryX=0.855;entryY=0.145;entryDx=0;entryDy=0;entryPerimeter=0;edgeStyle=elbowEdgeStyle;" edge="1" parent="1" source="d6f9d9BtoIqbWKQXRGAZ-1" target="d6f9d9BtoIqbWKQXRGAZ-7">
          <mxGeometry width="50" height="50" relative="1" as="geometry">
            <mxPoint x="-40" y="200" as="sourcePoint" />
            <mxPoint x="10" y="150" as="targetPoint" />
            <Array as="points">
              <mxPoint x="-130" y="160" />
            </Array>
          </mxGeometry>
        </mxCell>
        <mxCell id="d6f9d9BtoIqbWKQXRGAZ-10" value="&lt;font style=&quot;font-size: 14px;&quot;&gt;Nastup&lt;/font&gt;" style="text;html=1;strokeColor=none;fillColor=none;align=center;verticalAlign=middle;whiteSpace=wrap;rounded=0;" vertex="1" parent="1">
          <mxGeometry x="-200" y="180" width="60" height="30" as="geometry" />
        </mxCell>
        <mxCell id="d6f9d9BtoIqbWKQXRGAZ-11" value="" style="verticalLabelPosition=bottom;verticalAlign=top;html=1;shape=mxgraph.flowchart.on-page_reference;fillColor=none;" vertex="1" parent="1">
          <mxGeometry x="-80" y="-70" width="60" height="60" as="geometry" />
        </mxCell>
        <mxCell id="d6f9d9BtoIqbWKQXRGAZ-12" value="&lt;font style=&quot;font-size: 14px;&quot;&gt;4&lt;/font&gt;" style="text;html=1;strokeColor=none;fillColor=none;align=center;verticalAlign=middle;whiteSpace=wrap;rounded=0;" vertex="1" parent="1">
          <mxGeometry x="-80" y="-55" width="60" height="30" as="geometry" />
        </mxCell>
        <mxCell id="d6f9d9BtoIqbWKQXRGAZ-13" value="" style="endArrow=classic;html=1;rounded=0;exitX=0;exitY=0.5;exitDx=0;exitDy=0;exitPerimeter=0;entryX=0.75;entryY=0;entryDx=0;entryDy=0;edgeStyle=orthogonalEdgeStyle;" edge="1" parent="1" source="d6f9d9BtoIqbWKQXRGAZ-11" target="d6f9d9BtoIqbWKQXRGAZ-1">
          <mxGeometry width="50" height="50" relative="1" as="geometry">
            <mxPoint x="-80" as="sourcePoint" />
            <mxPoint x="-190" y="-50" as="targetPoint" />
            <Array as="points">
              <mxPoint x="-200" y="-40" />
              <mxPoint x="-200" y="85" />
            </Array>
          </mxGeometry>
        </mxCell>
        <mxCell id="d6f9d9BtoIqbWKQXRGAZ-14" value="" style="rounded=0;whiteSpace=wrap;html=1;rotation=-90;fillColor=#000000;" vertex="1" parent="1">
          <mxGeometry x="40" y="107.5" width="60" height="15" as="geometry" />
        </mxCell>
        <mxCell id="d6f9d9BtoIqbWKQXRGAZ-15" value="" style="endArrow=classic;html=1;rounded=0;exitX=1;exitY=0.5;exitDx=0;exitDy=0;exitPerimeter=0;entryX=0.75;entryY=0;entryDx=0;entryDy=0;" edge="1" parent="1" source="d6f9d9BtoIqbWKQXRGAZ-4" target="d6f9d9BtoIqbWKQXRGAZ-14">
          <mxGeometry width="50" height="50" relative="1" as="geometry">
            <mxPoint x="20" y="220" as="sourcePoint" />
            <mxPoint x="70" y="170" as="targetPoint" />
          </mxGeometry>
        </mxCell>
        <mxCell id="d6f9d9BtoIqbWKQXRGAZ-16" value="" style="endArrow=classic;html=1;rounded=0;exitX=1;exitY=0.5;exitDx=0;exitDy=0;exitPerimeter=0;edgeStyle=orthogonalEdgeStyle;entryX=0.5;entryY=0;entryDx=0;entryDy=0;" edge="1" parent="1" source="d6f9d9BtoIqbWKQXRGAZ-7" target="d6f9d9BtoIqbWKQXRGAZ-14">
          <mxGeometry width="50" height="50" relative="1" as="geometry">
            <mxPoint x="-40" y="270" as="sourcePoint" />
            <mxPoint x="50" y="160" as="targetPoint" />
            <Array as="points">
              <mxPoint y="240" />
              <mxPoint y="115" />
            </Array>
          </mxGeometry>
        </mxCell>
        <mxCell id="d6f9d9BtoIqbWKQXRGAZ-17" value="" style="verticalLabelPosition=bottom;verticalAlign=top;html=1;shape=mxgraph.flowchart.on-page_reference;fillColor=none;" vertex="1" parent="1">
          <mxGeometry x="540" y="180" width="60" height="60" as="geometry" />
        </mxCell>
        <mxCell id="d6f9d9BtoIqbWKQXRGAZ-18" value="" style="endArrow=classic;html=1;rounded=0;entryX=1;entryY=0.5;entryDx=0;entryDy=0;entryPerimeter=0;exitX=0.5;exitY=0;exitDx=0;exitDy=0;" edge="1" parent="1" source="d6f9d9BtoIqbWKQXRGAZ-66" target="d6f9d9BtoIqbWKQXRGAZ-17">
          <mxGeometry width="50" height="50" relative="1" as="geometry">
            <mxPoint x="660" y="310" as="sourcePoint" />
            <mxPoint x="710" y="260" as="targetPoint" />
          </mxGeometry>
        </mxCell>
        <mxCell id="d6f9d9BtoIqbWKQXRGAZ-19" value="" style="endArrow=classic;html=1;rounded=0;exitX=0;exitY=0.5;exitDx=0;exitDy=0;exitPerimeter=0;entryX=0.5;entryY=1;entryDx=0;entryDy=0;" edge="1" parent="1" source="d6f9d9BtoIqbWKQXRGAZ-17" target="d6f9d9BtoIqbWKQXRGAZ-20">
          <mxGeometry width="50" height="50" relative="1" as="geometry">
            <mxPoint x="400" y="250" as="sourcePoint" />
            <mxPoint x="450" y="200" as="targetPoint" />
          </mxGeometry>
        </mxCell>
        <mxCell id="d6f9d9BtoIqbWKQXRGAZ-20" value="" style="rounded=0;whiteSpace=wrap;html=1;rotation=-90;fillColor=#FFFFFF;" vertex="1" parent="1">
          <mxGeometry x="410" y="202.5" width="60" height="15" as="geometry" />
        </mxCell>
        <mxCell id="d6f9d9BtoIqbWKQXRGAZ-21" value="" style="verticalLabelPosition=bottom;verticalAlign=top;html=1;shape=mxgraph.flowchart.on-page_reference;fillColor=none;" vertex="1" parent="1">
          <mxGeometry x="410" y="310" width="60" height="60" as="geometry" />
        </mxCell>
        <mxCell id="d6f9d9BtoIqbWKQXRGAZ-22" value="" style="endArrow=classic;html=1;rounded=0;entryX=0.25;entryY=1;entryDx=0;entryDy=0;exitX=0.855;exitY=0.145;exitDx=0;exitDy=0;exitPerimeter=0;edgeStyle=orthogonalEdgeStyle;" edge="1" parent="1" source="d6f9d9BtoIqbWKQXRGAZ-21" target="d6f9d9BtoIqbWKQXRGAZ-20">
          <mxGeometry width="50" height="50" relative="1" as="geometry">
            <mxPoint x="300" y="340" as="sourcePoint" />
            <mxPoint x="350" y="290" as="targetPoint" />
            <Array as="points">
              <mxPoint x="480" y="319" />
              <mxPoint x="480" y="225" />
            </Array>
          </mxGeometry>
        </mxCell>
        <mxCell id="d6f9d9BtoIqbWKQXRGAZ-23" value="" style="endArrow=classic;html=1;rounded=0;exitX=0.25;exitY=0;exitDx=0;exitDy=0;entryX=0.145;entryY=0.145;entryDx=0;entryDy=0;entryPerimeter=0;edgeStyle=elbowEdgeStyle;" edge="1" parent="1" source="d6f9d9BtoIqbWKQXRGAZ-20" target="d6f9d9BtoIqbWKQXRGAZ-21">
          <mxGeometry width="50" height="50" relative="1" as="geometry">
            <mxPoint x="300" y="310" as="sourcePoint" />
            <mxPoint x="350" y="260" as="targetPoint" />
            <Array as="points">
              <mxPoint x="400" y="270" />
            </Array>
          </mxGeometry>
        </mxCell>
        <mxCell id="d6f9d9BtoIqbWKQXRGAZ-24" value="&lt;font style=&quot;font-size: 14px;&quot;&gt;OK&lt;/font&gt;" style="text;html=1;strokeColor=none;fillColor=none;align=center;verticalAlign=middle;whiteSpace=wrap;rounded=0;" vertex="1" parent="1">
          <mxGeometry x="410" y="280" width="60" height="30" as="geometry" />
        </mxCell>
        <mxCell id="d6f9d9BtoIqbWKQXRGAZ-25" value="&lt;font style=&quot;font-size: 14px;&quot;&gt;154&lt;/font&gt;" style="text;html=1;strokeColor=none;fillColor=none;align=center;verticalAlign=middle;whiteSpace=wrap;rounded=0;" vertex="1" parent="1">
          <mxGeometry x="540" y="195" width="60" height="30" as="geometry" />
        </mxCell>
        <mxCell id="d6f9d9BtoIqbWKQXRGAZ-26" value="&lt;font style=&quot;font-size: 14px;&quot;&gt;6 s&lt;/font&gt;" style="text;html=1;strokeColor=none;fillColor=none;align=center;verticalAlign=middle;whiteSpace=wrap;rounded=0;" vertex="1" parent="1">
          <mxGeometry x="410" y="151" width="60" height="30" as="geometry" />
        </mxCell>
        <mxCell id="d6f9d9BtoIqbWKQXRGAZ-28" value="" style="verticalLabelPosition=bottom;verticalAlign=top;html=1;shape=mxgraph.flowchart.on-page_reference;fillColor=none;" vertex="1" parent="1">
          <mxGeometry x="270" y="180" width="60" height="60" as="geometry" />
        </mxCell>
        <mxCell id="d6f9d9BtoIqbWKQXRGAZ-29" value="" style="endArrow=classic;html=1;rounded=0;exitX=0.5;exitY=0;exitDx=0;exitDy=0;entryX=1;entryY=0.5;entryDx=0;entryDy=0;entryPerimeter=0;" edge="1" parent="1" source="d6f9d9BtoIqbWKQXRGAZ-20" target="d6f9d9BtoIqbWKQXRGAZ-28">
          <mxGeometry width="50" height="50" relative="1" as="geometry">
            <mxPoint x="330" y="140" as="sourcePoint" />
            <mxPoint x="380" y="90" as="targetPoint" />
          </mxGeometry>
        </mxCell>
        <mxCell id="d6f9d9BtoIqbWKQXRGAZ-30" value="" style="endArrow=classic;html=1;rounded=0;exitX=0;exitY=0.5;exitDx=0;exitDy=0;exitPerimeter=0;entryX=0.25;entryY=0;entryDx=0;entryDy=0;edgeStyle=orthogonalEdgeStyle;" edge="1" parent="1" source="d6f9d9BtoIqbWKQXRGAZ-28" target="d6f9d9BtoIqbWKQXRGAZ-14">
          <mxGeometry width="50" height="50" relative="1" as="geometry">
            <mxPoint x="150" y="280" as="sourcePoint" />
            <mxPoint x="200" y="230" as="targetPoint" />
            <Array as="points">
              <mxPoint x="40" y="210" />
              <mxPoint x="40" y="130" />
            </Array>
          </mxGeometry>
        </mxCell>
        <mxCell id="d6f9d9BtoIqbWKQXRGAZ-31" value="" style="rounded=0;whiteSpace=wrap;html=1;rotation=-90;fillColor=#000000;" vertex="1" parent="1">
          <mxGeometry x="370" y="136" width="60" height="15" as="geometry" />
        </mxCell>
        <mxCell id="d6f9d9BtoIqbWKQXRGAZ-32" value="" style="endArrow=classic;html=1;rounded=0;exitX=0.5;exitY=0;exitDx=0;exitDy=0;exitPerimeter=0;entryX=0.5;entryY=0;entryDx=0;entryDy=0;edgeStyle=elbowEdgeStyle;" edge="1" parent="1" source="d6f9d9BtoIqbWKQXRGAZ-28" target="d6f9d9BtoIqbWKQXRGAZ-31">
          <mxGeometry width="50" height="50" relative="1" as="geometry">
            <mxPoint x="230" y="160" as="sourcePoint" />
            <mxPoint x="280" y="110" as="targetPoint" />
            <Array as="points">
              <mxPoint x="300" y="140" />
            </Array>
          </mxGeometry>
        </mxCell>
        <mxCell id="d6f9d9BtoIqbWKQXRGAZ-33" value="" style="verticalLabelPosition=bottom;verticalAlign=top;html=1;shape=mxgraph.flowchart.on-page_reference;fillColor=none;" vertex="1" parent="1">
          <mxGeometry x="180" y="-20" width="60" height="60" as="geometry" />
        </mxCell>
        <mxCell id="d6f9d9BtoIqbWKQXRGAZ-34" value="" style="endArrow=classic;html=1;rounded=0;exitX=0.75;exitY=1;exitDx=0;exitDy=0;edgeStyle=orthogonalEdgeStyle;entryX=0.5;entryY=1;entryDx=0;entryDy=0;entryPerimeter=0;" edge="1" parent="1" source="d6f9d9BtoIqbWKQXRGAZ-14" target="d6f9d9BtoIqbWKQXRGAZ-33">
          <mxGeometry width="50" height="50" relative="1" as="geometry">
            <mxPoint x="150" y="130" as="sourcePoint" />
            <mxPoint x="200" y="80" as="targetPoint" />
          </mxGeometry>
        </mxCell>
        <mxCell id="d6f9d9BtoIqbWKQXRGAZ-35" value="" style="rounded=0;whiteSpace=wrap;html=1;rotation=-90;fillColor=#000000;" vertex="1" parent="1">
          <mxGeometry x="60" y="-47.5" width="60" height="15" as="geometry" />
        </mxCell>
        <mxCell id="d6f9d9BtoIqbWKQXRGAZ-36" value="" style="endArrow=classic;html=1;rounded=0;exitX=0.145;exitY=0.145;exitDx=0;exitDy=0;exitPerimeter=0;entryX=0.5;entryY=1;entryDx=0;entryDy=0;edgeStyle=orthogonalEdgeStyle;" edge="1" parent="1" source="d6f9d9BtoIqbWKQXRGAZ-33" target="d6f9d9BtoIqbWKQXRGAZ-35">
          <mxGeometry width="50" height="50" relative="1" as="geometry">
            <mxPoint x="290" y="-20" as="sourcePoint" />
            <mxPoint x="180" y="-90" as="targetPoint" />
            <Array as="points">
              <mxPoint x="189" y="-40" />
            </Array>
          </mxGeometry>
        </mxCell>
        <mxCell id="d6f9d9BtoIqbWKQXRGAZ-37" value="" style="endArrow=classic;html=1;rounded=0;exitX=0.855;exitY=0.145;exitDx=0;exitDy=0;exitPerimeter=0;entryX=0.25;entryY=1;entryDx=0;entryDy=0;edgeStyle=orthogonalEdgeStyle;" edge="1" parent="1" source="d6f9d9BtoIqbWKQXRGAZ-4" target="d6f9d9BtoIqbWKQXRGAZ-35">
          <mxGeometry width="50" height="50" relative="1" as="geometry">
            <mxPoint x="-10" y="60" as="sourcePoint" />
            <mxPoint x="40" y="10" as="targetPoint" />
            <Array as="points">
              <mxPoint x="-29" y="50" />
              <mxPoint x="130" y="50" />
              <mxPoint x="130" y="-25" />
            </Array>
          </mxGeometry>
        </mxCell>
        <mxCell id="d6f9d9BtoIqbWKQXRGAZ-39" value="&lt;font style=&quot;font-size: 14px;&quot;&gt;p = 2&lt;/font&gt;" style="text;html=1;strokeColor=none;fillColor=none;align=center;verticalAlign=middle;whiteSpace=wrap;rounded=0;" vertex="1" parent="1">
          <mxGeometry x="40" y="60" width="60" height="30" as="geometry" />
        </mxCell>
        <mxCell id="d6f9d9BtoIqbWKQXRGAZ-40" value="&lt;font style=&quot;font-size: 14px;&quot;&gt;p = 1&lt;/font&gt;" style="text;html=1;strokeColor=none;fillColor=none;align=center;verticalAlign=middle;whiteSpace=wrap;rounded=0;" vertex="1" parent="1">
          <mxGeometry x="60" y="-10" width="60" height="30" as="geometry" />
        </mxCell>
        <mxCell id="d6f9d9BtoIqbWKQXRGAZ-41" value="" style="endArrow=classic;html=1;rounded=0;exitX=0.75;exitY=0;exitDx=0;exitDy=0;entryX=0.5;entryY=0;entryDx=0;entryDy=0;entryPerimeter=0;edgeStyle=orthogonalEdgeStyle;" edge="1" parent="1" source="d6f9d9BtoIqbWKQXRGAZ-35" target="d6f9d9BtoIqbWKQXRGAZ-33">
          <mxGeometry width="50" height="50" relative="1" as="geometry">
            <mxPoint x="290" y="-80" as="sourcePoint" />
            <mxPoint x="220" y="-130" as="targetPoint" />
            <Array as="points">
              <mxPoint x="72" y="-55" />
              <mxPoint x="72" y="-80" />
              <mxPoint x="210" y="-80" />
            </Array>
          </mxGeometry>
        </mxCell>
        <mxCell id="d6f9d9BtoIqbWKQXRGAZ-42" value="" style="endArrow=classic;html=1;rounded=0;exitX=0.5;exitY=0;exitDx=0;exitDy=0;entryX=0;entryY=0.5;entryDx=0;entryDy=0;entryPerimeter=0;edgeStyle=orthogonalEdgeStyle;" edge="1" parent="1" source="d6f9d9BtoIqbWKQXRGAZ-35" target="d6f9d9BtoIqbWKQXRGAZ-43">
          <mxGeometry width="50" height="50" relative="1" as="geometry">
            <mxPoint x="390" y="10" as="sourcePoint" />
            <mxPoint x="310" y="-60" as="targetPoint" />
            <Array as="points">
              <mxPoint x="60" y="-40" />
              <mxPoint x="60" y="-100" />
              <mxPoint x="230" y="-100" />
              <mxPoint x="230" y="-78" />
            </Array>
          </mxGeometry>
        </mxCell>
        <mxCell id="d6f9d9BtoIqbWKQXRGAZ-43" value="" style="verticalLabelPosition=bottom;verticalAlign=top;html=1;shape=mxgraph.flowchart.on-page_reference;fillColor=none;" vertex="1" parent="1">
          <mxGeometry x="380" y="-107.5" width="60" height="60" as="geometry" />
        </mxCell>
        <mxCell id="d6f9d9BtoIqbWKQXRGAZ-44" value="" style="endArrow=classic;html=1;rounded=0;exitX=0.25;exitY=0;exitDx=0;exitDy=0;entryX=1;entryY=0.5;entryDx=0;entryDy=0;entryPerimeter=0;edgeStyle=orthogonalEdgeStyle;" edge="1" parent="1" source="d6f9d9BtoIqbWKQXRGAZ-35" target="d6f9d9BtoIqbWKQXRGAZ-11">
          <mxGeometry width="50" height="50" relative="1" as="geometry">
            <mxPoint x="-10" y="20" as="sourcePoint" />
            <mxPoint as="targetPoint" />
          </mxGeometry>
        </mxCell>
        <mxCell id="d6f9d9BtoIqbWKQXRGAZ-45" value="" style="rounded=0;whiteSpace=wrap;html=1;rotation=-90;fillColor=#000000;" vertex="1" parent="1">
          <mxGeometry x="270" y="2.5" width="60" height="15" as="geometry" />
        </mxCell>
        <mxCell id="d6f9d9BtoIqbWKQXRGAZ-46" value="" style="endArrow=classic;html=1;rounded=0;exitX=1;exitY=0.5;exitDx=0;exitDy=0;exitPerimeter=0;entryX=0.5;entryY=0;entryDx=0;entryDy=0;" edge="1" parent="1" source="d6f9d9BtoIqbWKQXRGAZ-33" target="d6f9d9BtoIqbWKQXRGAZ-45">
          <mxGeometry width="50" height="50" relative="1" as="geometry">
            <mxPoint x="490" y="50" as="sourcePoint" />
            <mxPoint x="540" as="targetPoint" />
          </mxGeometry>
        </mxCell>
        <mxCell id="d6f9d9BtoIqbWKQXRGAZ-47" value="" style="endArrow=classic;html=1;rounded=0;exitX=0.75;exitY=1;exitDx=0;exitDy=0;entryX=0.5;entryY=0;entryDx=0;entryDy=0;entryPerimeter=0;edgeStyle=orthogonalEdgeStyle;" edge="1" parent="1" source="d6f9d9BtoIqbWKQXRGAZ-45" target="d6f9d9BtoIqbWKQXRGAZ-11">
          <mxGeometry width="50" height="50" relative="1" as="geometry">
            <mxPoint x="390" y="40" as="sourcePoint" />
            <mxPoint x="440" y="-10" as="targetPoint" />
            <Array as="points">
              <mxPoint x="318" y="-5" />
              <mxPoint x="318" y="-140" />
              <mxPoint x="-50" y="-140" />
            </Array>
          </mxGeometry>
        </mxCell>
        <mxCell id="d6f9d9BtoIqbWKQXRGAZ-48" value="" style="endArrow=classic;html=1;rounded=0;exitX=0.5;exitY=1;exitDx=0;exitDy=0;entryX=0.5;entryY=1;entryDx=0;entryDy=0;entryPerimeter=0;edgeStyle=orthogonalEdgeStyle;" edge="1" parent="1" source="d6f9d9BtoIqbWKQXRGAZ-45" target="d6f9d9BtoIqbWKQXRGAZ-43">
          <mxGeometry width="50" height="50" relative="1" as="geometry">
            <mxPoint x="460" y="50" as="sourcePoint" />
            <mxPoint x="510" as="targetPoint" />
          </mxGeometry>
        </mxCell>
        <mxCell id="d6f9d9BtoIqbWKQXRGAZ-49" value="" style="endArrow=classic;html=1;rounded=0;exitX=0.25;exitY=1;exitDx=0;exitDy=0;entryX=0.5;entryY=1;entryDx=0;entryDy=0;entryPerimeter=0;edgeStyle=orthogonalEdgeStyle;" edge="1" parent="1" source="d6f9d9BtoIqbWKQXRGAZ-45" target="d6f9d9BtoIqbWKQXRGAZ-7">
          <mxGeometry width="50" height="50" relative="1" as="geometry">
            <mxPoint x="470" y="60" as="sourcePoint" />
            <mxPoint x="520" y="10" as="targetPoint" />
            <Array as="points">
              <mxPoint x="320" y="25" />
              <mxPoint x="320" y="70" />
              <mxPoint x="240" y="70" />
              <mxPoint x="240" y="290" />
              <mxPoint x="-170" y="290" />
            </Array>
          </mxGeometry>
        </mxCell>
        <mxCell id="d6f9d9BtoIqbWKQXRGAZ-50" value="" style="endArrow=classic;html=1;rounded=0;exitX=1;exitY=0.5;exitDx=0;exitDy=0;exitPerimeter=0;entryX=0.5;entryY=0;entryDx=0;entryDy=0;" edge="1" parent="1" source="d6f9d9BtoIqbWKQXRGAZ-43" target="d6f9d9BtoIqbWKQXRGAZ-51">
          <mxGeometry width="50" height="50" relative="1" as="geometry">
            <mxPoint x="620" y="-60" as="sourcePoint" />
            <mxPoint x="560" y="-77" as="targetPoint" />
          </mxGeometry>
        </mxCell>
        <mxCell id="d6f9d9BtoIqbWKQXRGAZ-51" value="" style="rounded=0;whiteSpace=wrap;html=1;rotation=-90;fillColor=#FFFFFF;" vertex="1" parent="1">
          <mxGeometry x="550" y="-85" width="60" height="15" as="geometry" />
        </mxCell>
        <mxCell id="d6f9d9BtoIqbWKQXRGAZ-55" value="&lt;font style=&quot;font-size: 14px;&quot;&gt;8,4 min&lt;/font&gt;" style="text;html=1;strokeColor=none;fillColor=none;align=center;verticalAlign=middle;whiteSpace=wrap;rounded=0;" vertex="1" parent="1">
          <mxGeometry x="550" y="-137.5" width="60" height="30" as="geometry" />
        </mxCell>
        <mxCell id="d6f9d9BtoIqbWKQXRGAZ-57" value="" style="endArrow=classic;html=1;rounded=0;exitX=0.5;exitY=1;exitDx=0;exitDy=0;entryX=0.145;entryY=0.855;entryDx=0;entryDy=0;entryPerimeter=0;edgeStyle=orthogonalEdgeStyle;" edge="1" parent="1" source="d6f9d9BtoIqbWKQXRGAZ-31" target="d6f9d9BtoIqbWKQXRGAZ-58">
          <mxGeometry width="50" height="50" relative="1" as="geometry">
            <mxPoint x="510" y="100" as="sourcePoint" />
            <mxPoint x="560" y="120" as="targetPoint" />
          </mxGeometry>
        </mxCell>
        <mxCell id="d6f9d9BtoIqbWKQXRGAZ-58" value="" style="verticalLabelPosition=bottom;verticalAlign=top;html=1;shape=mxgraph.flowchart.on-page_reference;fillColor=none;" vertex="1" parent="1">
          <mxGeometry x="550" y="30" width="60" height="60" as="geometry" />
        </mxCell>
        <mxCell id="d6f9d9BtoIqbWKQXRGAZ-59" value="" style="endArrow=classic;html=1;rounded=0;exitX=0.5;exitY=1;exitDx=0;exitDy=0;entryX=0;entryY=0.5;entryDx=0;entryDy=0;entryPerimeter=0;edgeStyle=orthogonalEdgeStyle;" edge="1" parent="1" source="d6f9d9BtoIqbWKQXRGAZ-14" target="d6f9d9BtoIqbWKQXRGAZ-58">
          <mxGeometry width="50" height="50" relative="1" as="geometry">
            <mxPoint x="410" y="80" as="sourcePoint" />
            <mxPoint x="460" y="30" as="targetPoint" />
            <Array as="points">
              <mxPoint x="350" y="115" />
              <mxPoint x="350" y="60" />
            </Array>
          </mxGeometry>
        </mxCell>
        <mxCell id="d6f9d9BtoIqbWKQXRGAZ-60" value="" style="rounded=0;whiteSpace=wrap;html=1;rotation=-90;fillColor=#FFFFFF;" vertex="1" parent="1">
          <mxGeometry x="660" y="52.5" width="60" height="15" as="geometry" />
        </mxCell>
        <mxCell id="d6f9d9BtoIqbWKQXRGAZ-61" value="&lt;font style=&quot;font-size: 14px;&quot;&gt;8,4 min&lt;/font&gt;" style="text;html=1;strokeColor=none;fillColor=none;align=center;verticalAlign=middle;whiteSpace=wrap;rounded=0;" vertex="1" parent="1">
          <mxGeometry x="660" y="2.5" width="60" height="30" as="geometry" />
        </mxCell>
        <mxCell id="d6f9d9BtoIqbWKQXRGAZ-62" value="" style="endArrow=classic;html=1;rounded=0;exitX=1;exitY=0.5;exitDx=0;exitDy=0;exitPerimeter=0;entryX=0.5;entryY=0;entryDx=0;entryDy=0;" edge="1" parent="1" source="d6f9d9BtoIqbWKQXRGAZ-58" target="d6f9d9BtoIqbWKQXRGAZ-60">
          <mxGeometry width="50" height="50" relative="1" as="geometry">
            <mxPoint x="730" y="210" as="sourcePoint" />
            <mxPoint x="780" y="160" as="targetPoint" />
          </mxGeometry>
        </mxCell>
        <mxCell id="d6f9d9BtoIqbWKQXRGAZ-63" value="" style="endArrow=classic;html=1;rounded=0;exitX=0.5;exitY=1;exitDx=0;exitDy=0;entryX=0.5;entryY=0;entryDx=0;entryDy=0;entryPerimeter=0;edgeStyle=orthogonalEdgeStyle;" edge="1" parent="1" source="d6f9d9BtoIqbWKQXRGAZ-60" target="d6f9d9BtoIqbWKQXRGAZ-65">
          <mxGeometry width="50" height="50" relative="1" as="geometry">
            <mxPoint x="780" y="130" as="sourcePoint" />
            <mxPoint x="810" y="60" as="targetPoint" />
          </mxGeometry>
        </mxCell>
        <mxCell id="d6f9d9BtoIqbWKQXRGAZ-65" value="" style="verticalLabelPosition=bottom;verticalAlign=top;html=1;shape=mxgraph.flowchart.on-page_reference;fillColor=none;" vertex="1" parent="1">
          <mxGeometry x="770" y="121" width="60" height="60" as="geometry" />
        </mxCell>
        <mxCell id="d6f9d9BtoIqbWKQXRGAZ-66" value="" style="rounded=0;whiteSpace=wrap;html=1;rotation=-90;fillColor=#FFFFFF;" vertex="1" parent="1">
          <mxGeometry x="660" y="202.5" width="60" height="15" as="geometry" />
        </mxCell>
        <mxCell id="d6f9d9BtoIqbWKQXRGAZ-67" value="&lt;font style=&quot;font-size: 14px;&quot;&gt;8,4 min&lt;/font&gt;" style="text;html=1;strokeColor=none;fillColor=none;align=center;verticalAlign=middle;whiteSpace=wrap;rounded=0;" vertex="1" parent="1">
          <mxGeometry x="660" y="150" width="60" height="30" as="geometry" />
        </mxCell>
        <mxCell id="d6f9d9BtoIqbWKQXRGAZ-68" value="" style="endArrow=classic;html=1;rounded=0;exitX=0.5;exitY=1;exitDx=0;exitDy=0;exitPerimeter=0;entryX=0.5;entryY=1;entryDx=0;entryDy=0;edgeStyle=orthogonalEdgeStyle;" edge="1" parent="1" source="d6f9d9BtoIqbWKQXRGAZ-65" target="d6f9d9BtoIqbWKQXRGAZ-66">
          <mxGeometry width="50" height="50" relative="1" as="geometry">
            <mxPoint x="830" y="290" as="sourcePoint" />
            <mxPoint x="880" y="240" as="targetPoint" />
          </mxGeometry>
        </mxCell>
        <mxCell id="d6f9d9BtoIqbWKQXRGAZ-70" value="&lt;font style=&quot;font-size: 14px;&quot;&gt;sedačka ide prázdna&lt;/font&gt;" style="text;html=1;strokeColor=none;fillColor=none;align=center;verticalAlign=middle;whiteSpace=wrap;rounded=0;" vertex="1" parent="1">
          <mxGeometry x="400" y="92.5" width="100" height="30" as="geometry" />
        </mxCell>
        <mxCell id="d6f9d9BtoIqbWKQXRGAZ-71" value="&lt;font style=&quot;font-size: 14px;&quot;&gt;Fronta na lanovku&lt;/font&gt;" style="text;html=1;strokeColor=none;fillColor=none;align=center;verticalAlign=middle;whiteSpace=wrap;rounded=0;" vertex="1" parent="1">
          <mxGeometry x="-325" y="140" width="70" height="30" as="geometry" />
        </mxCell>
        <mxCell id="d6f9d9BtoIqbWKQXRGAZ-72" value="&lt;font style=&quot;font-size: 14px;&quot;&gt;Kapacita sedačky&lt;/font&gt;" style="text;html=1;strokeColor=none;fillColor=none;align=center;verticalAlign=middle;whiteSpace=wrap;rounded=0;" vertex="1" parent="1">
          <mxGeometry x="-140" y="-100" width="60" height="30" as="geometry" />
        </mxCell>
        <mxCell id="d6f9d9BtoIqbWKQXRGAZ-73" value="" style="endArrow=classic;html=1;rounded=0;exitX=0.5;exitY=1;exitDx=0;exitDy=0;entryX=0.5;entryY=1;entryDx=0;entryDy=0;entryPerimeter=0;edgeStyle=orthogonalEdgeStyle;" edge="1" parent="1" source="d6f9d9BtoIqbWKQXRGAZ-51" target="d6f9d9BtoIqbWKQXRGAZ-74">
          <mxGeometry width="50" height="50" relative="1" as="geometry">
            <mxPoint x="750" y="-90" as="sourcePoint" />
            <mxPoint x="730" y="-77" as="targetPoint" />
          </mxGeometry>
        </mxCell>
        <mxCell id="d6f9d9BtoIqbWKQXRGAZ-74" value="" style="verticalLabelPosition=bottom;verticalAlign=top;html=1;shape=mxgraph.flowchart.on-page_reference;fillColor=none;" vertex="1" parent="1">
          <mxGeometry x="650" y="-290" width="60" height="60" as="geometry" />
        </mxCell>
        <mxCell id="d6f9d9BtoIqbWKQXRGAZ-87" value="" style="endArrow=classic;html=1;rounded=0;exitX=0;exitY=0.5;exitDx=0;exitDy=0;exitPerimeter=0;entryX=0.5;entryY=1;entryDx=0;entryDy=0;" edge="1" parent="1" source="d6f9d9BtoIqbWKQXRGAZ-74" target="d6f9d9BtoIqbWKQXRGAZ-88">
          <mxGeometry width="50" height="50" relative="1" as="geometry">
            <mxPoint x="430" y="-350" as="sourcePoint" />
            <mxPoint x="460" y="-260" as="targetPoint" />
          </mxGeometry>
        </mxCell>
        <mxCell id="d6f9d9BtoIqbWKQXRGAZ-88" value="" style="rounded=0;whiteSpace=wrap;html=1;rotation=-90;fillColor=#FFFFFF;" vertex="1" parent="1">
          <mxGeometry x="450" y="-267.5" width="60" height="15" as="geometry" />
        </mxCell>
        <mxCell id="d6f9d9BtoIqbWKQXRGAZ-90" value="&lt;font style=&quot;font-size: 14px;&quot;&gt;3 - 5 min&lt;/font&gt;" style="text;html=1;strokeColor=none;fillColor=none;align=center;verticalAlign=middle;whiteSpace=wrap;rounded=0;" vertex="1" parent="1">
          <mxGeometry x="450" y="-320" width="60" height="30" as="geometry" />
        </mxCell>
        <mxCell id="d6f9d9BtoIqbWKQXRGAZ-91" value="" style="endArrow=classic;html=1;rounded=0;exitX=0.5;exitY=0;exitDx=0;exitDy=0;entryX=1;entryY=0.5;entryDx=0;entryDy=0;entryPerimeter=0;" edge="1" parent="1" source="d6f9d9BtoIqbWKQXRGAZ-88" target="d6f9d9BtoIqbWKQXRGAZ-92">
          <mxGeometry width="50" height="50" relative="1" as="geometry">
            <mxPoint x="260" y="-240" as="sourcePoint" />
            <mxPoint x="310" y="-290" as="targetPoint" />
          </mxGeometry>
        </mxCell>
        <mxCell id="d6f9d9BtoIqbWKQXRGAZ-92" value="" style="verticalLabelPosition=bottom;verticalAlign=top;html=1;shape=mxgraph.flowchart.on-page_reference;fillColor=none;" vertex="1" parent="1">
          <mxGeometry x="300" y="-290" width="60" height="60" as="geometry" />
        </mxCell>
        <mxCell id="d6f9d9BtoIqbWKQXRGAZ-93" value="" style="endArrow=classic;html=1;rounded=0;exitX=0.145;exitY=0.855;exitDx=0;exitDy=0;exitPerimeter=0;entryX=0.5;entryY=1;entryDx=0;entryDy=0;edgeStyle=orthogonalEdgeStyle;" edge="1" parent="1" source="d6f9d9BtoIqbWKQXRGAZ-92" target="d6f9d9BtoIqbWKQXRGAZ-94">
          <mxGeometry width="50" height="50" relative="1" as="geometry">
            <mxPoint x="90" y="-240" as="sourcePoint" />
            <mxPoint x="190" y="-230" as="targetPoint" />
            <Array as="points">
              <mxPoint x="309" y="-222" />
            </Array>
          </mxGeometry>
        </mxCell>
        <mxCell id="d6f9d9BtoIqbWKQXRGAZ-94" value="" style="rounded=0;whiteSpace=wrap;html=1;rotation=-90;fillColor=#000000;" vertex="1" parent="1">
          <mxGeometry x="130" y="-230" width="60" height="15" as="geometry" />
        </mxCell>
        <mxCell id="d6f9d9BtoIqbWKQXRGAZ-95" value="" style="endArrow=classic;html=1;rounded=0;exitX=0.5;exitY=0;exitDx=0;exitDy=0;entryX=0.5;entryY=0;entryDx=0;entryDy=0;entryPerimeter=0;edgeStyle=orthogonalEdgeStyle;" edge="1" parent="1" source="d6f9d9BtoIqbWKQXRGAZ-94" target="AAFjQnPi5kUjQPwpxVuT-1">
          <mxGeometry width="50" height="50" relative="1" as="geometry">
            <mxPoint x="-180" y="-200" as="sourcePoint" />
            <mxPoint x="-130" y="-250" as="targetPoint" />
          </mxGeometry>
        </mxCell>
        <mxCell id="d6f9d9BtoIqbWKQXRGAZ-96" value="&lt;font style=&quot;font-size: 14px;&quot;&gt;95 %&lt;/font&gt;" style="text;html=1;strokeColor=none;fillColor=none;align=center;verticalAlign=middle;whiteSpace=wrap;rounded=0;" vertex="1" parent="1">
          <mxGeometry x="130" y="-190" width="60" height="30" as="geometry" />
        </mxCell>
        <mxCell id="d6f9d9BtoIqbWKQXRGAZ-97" value="" style="rounded=0;whiteSpace=wrap;html=1;rotation=-90;fillColor=#000000;" vertex="1" parent="1">
          <mxGeometry x="130" y="-335" width="60" height="15" as="geometry" />
        </mxCell>
        <mxCell id="d6f9d9BtoIqbWKQXRGAZ-99" value="" style="endArrow=classic;html=1;rounded=0;exitX=0.145;exitY=0.145;exitDx=0;exitDy=0;exitPerimeter=0;entryX=0.5;entryY=1;entryDx=0;entryDy=0;edgeStyle=orthogonalEdgeStyle;" edge="1" parent="1" source="d6f9d9BtoIqbWKQXRGAZ-92" target="d6f9d9BtoIqbWKQXRGAZ-97">
          <mxGeometry width="50" height="50" relative="1" as="geometry">
            <mxPoint x="250" y="-320" as="sourcePoint" />
            <mxPoint x="300" y="-370" as="targetPoint" />
            <Array as="points">
              <mxPoint x="310" y="-281" />
              <mxPoint x="310" y="-327" />
            </Array>
          </mxGeometry>
        </mxCell>
        <mxCell id="d6f9d9BtoIqbWKQXRGAZ-100" value="&lt;font style=&quot;font-size: 14px;&quot;&gt;5 %&lt;/font&gt;" style="text;html=1;strokeColor=none;fillColor=none;align=center;verticalAlign=middle;whiteSpace=wrap;rounded=0;" vertex="1" parent="1">
          <mxGeometry x="130" y="-297.5" width="60" height="30" as="geometry" />
        </mxCell>
        <mxCell id="d6f9d9BtoIqbWKQXRGAZ-102" value="" style="verticalLabelPosition=bottom;verticalAlign=top;html=1;shape=mxgraph.flowchart.on-page_reference;fillColor=none;" vertex="1" parent="1">
          <mxGeometry x="30" y="-440" width="60" height="60" as="geometry" />
        </mxCell>
        <mxCell id="d6f9d9BtoIqbWKQXRGAZ-103" value="" style="endArrow=classic;html=1;rounded=0;exitX=1;exitY=0.5;exitDx=0;exitDy=0;exitPerimeter=0;entryX=0.75;entryY=1;entryDx=0;entryDy=0;edgeStyle=orthogonalEdgeStyle;" edge="1" parent="1" source="d6f9d9BtoIqbWKQXRGAZ-102" target="d6f9d9BtoIqbWKQXRGAZ-97">
          <mxGeometry width="50" height="50" relative="1" as="geometry">
            <mxPoint x="170" y="-420" as="sourcePoint" />
            <mxPoint x="220" y="-470" as="targetPoint" />
            <Array as="points">
              <mxPoint x="190" y="-410" />
              <mxPoint x="190" y="-342" />
            </Array>
          </mxGeometry>
        </mxCell>
        <mxCell id="d6f9d9BtoIqbWKQXRGAZ-104" value="&lt;font style=&quot;font-size: 14px;&quot;&gt;30&lt;/font&gt;" style="text;html=1;strokeColor=none;fillColor=none;align=center;verticalAlign=middle;whiteSpace=wrap;rounded=0;" vertex="1" parent="1">
          <mxGeometry x="30" y="-425" width="60" height="30" as="geometry" />
        </mxCell>
        <mxCell id="d6f9d9BtoIqbWKQXRGAZ-105" value="&lt;font style=&quot;font-size: 14px;&quot;&gt;Bufet&lt;/font&gt;" style="text;html=1;strokeColor=none;fillColor=none;align=center;verticalAlign=middle;whiteSpace=wrap;rounded=0;" vertex="1" parent="1">
          <mxGeometry x="30" y="-470" width="60" height="30" as="geometry" />
        </mxCell>
        <mxCell id="d6f9d9BtoIqbWKQXRGAZ-106" value="" style="rounded=0;whiteSpace=wrap;html=1;rotation=-90;fillColor=#000000;" vertex="1" parent="1">
          <mxGeometry x="-70" y="-335" width="60" height="15" as="geometry" />
        </mxCell>
        <mxCell id="d6f9d9BtoIqbWKQXRGAZ-107" value="" style="verticalLabelPosition=bottom;verticalAlign=top;html=1;shape=mxgraph.flowchart.on-page_reference;fillColor=none;" vertex="1" parent="1">
          <mxGeometry x="30" y="-357.5" width="60" height="60" as="geometry" />
        </mxCell>
        <mxCell id="d6f9d9BtoIqbWKQXRGAZ-108" value="" style="endArrow=classic;html=1;rounded=0;exitX=0.5;exitY=0;exitDx=0;exitDy=0;entryX=1;entryY=0.5;entryDx=0;entryDy=0;entryPerimeter=0;" edge="1" parent="1" source="d6f9d9BtoIqbWKQXRGAZ-97" target="d6f9d9BtoIqbWKQXRGAZ-107">
          <mxGeometry width="50" height="50" relative="1" as="geometry">
            <mxPoint x="-10" y="-230" as="sourcePoint" />
            <mxPoint x="40" y="-280" as="targetPoint" />
          </mxGeometry>
        </mxCell>
        <mxCell id="d6f9d9BtoIqbWKQXRGAZ-109" value="" style="endArrow=classic;html=1;rounded=0;exitX=0;exitY=0.5;exitDx=0;exitDy=0;exitPerimeter=0;entryX=0.5;entryY=1;entryDx=0;entryDy=0;" edge="1" parent="1" source="d6f9d9BtoIqbWKQXRGAZ-107" target="d6f9d9BtoIqbWKQXRGAZ-106">
          <mxGeometry width="50" height="50" relative="1" as="geometry">
            <mxPoint x="-230" y="-300" as="sourcePoint" />
            <mxPoint x="-40" y="-330" as="targetPoint" />
          </mxGeometry>
        </mxCell>
        <mxCell id="d6f9d9BtoIqbWKQXRGAZ-111" value="" style="endArrow=classic;html=1;rounded=0;exitX=0.75;exitY=0;exitDx=0;exitDy=0;entryX=0;entryY=0.5;entryDx=0;entryDy=0;entryPerimeter=0;edgeStyle=orthogonalEdgeStyle;" edge="1" parent="1" source="d6f9d9BtoIqbWKQXRGAZ-106" target="d6f9d9BtoIqbWKQXRGAZ-102">
          <mxGeometry width="50" height="50" relative="1" as="geometry">
            <mxPoint x="-110" y="-410" as="sourcePoint" />
            <mxPoint x="-10" y="-380" as="targetPoint" />
          </mxGeometry>
        </mxCell>
        <mxCell id="d6f9d9BtoIqbWKQXRGAZ-112" value="" style="endArrow=classic;html=1;rounded=0;exitX=0.5;exitY=0;exitDx=0;exitDy=0;entryX=0.145;entryY=0.145;entryDx=0;entryDy=0;entryPerimeter=0;edgeStyle=orthogonalEdgeStyle;" edge="1" parent="1" source="d6f9d9BtoIqbWKQXRGAZ-106" target="AAFjQnPi5kUjQPwpxVuT-1">
          <mxGeometry width="50" height="50" relative="1" as="geometry">
            <mxPoint x="-190" y="-300" as="sourcePoint" />
            <mxPoint x="-140" y="-350" as="targetPoint" />
          </mxGeometry>
        </mxCell>
        <mxCell id="d6f9d9BtoIqbWKQXRGAZ-113" value="" style="shape=waypoint;sketch=0;fillStyle=solid;size=6;pointerEvents=1;points=[];fillColor=none;resizable=0;rotatable=0;perimeter=centerPerimeter;snapToPoint=1;strokeWidth=3;" vertex="1" parent="1">
          <mxGeometry x="430" y="330" width="20" height="20" as="geometry" />
        </mxCell>
        <mxCell id="d6f9d9BtoIqbWKQXRGAZ-114" value="" style="shape=waypoint;sketch=0;fillStyle=solid;size=6;pointerEvents=1;points=[];fillColor=none;resizable=0;rotatable=0;perimeter=centerPerimeter;snapToPoint=1;strokeWidth=3;" vertex="1" parent="1">
          <mxGeometry x="-180" y="230" width="20" height="20" as="geometry" />
        </mxCell>
      </root>
    </mxGraphModel>
  </diagram>
</mxfile>
